<?xml version="1.0" encoding="iso-8859-1"?>
<!-- Generator: Adobe Illustrator 19.0.0, SVG Export Plug-In . SVG Version: 6.00 Build 0)  -->
<svg version="1.1" id="Capa_1" xmlns="http://www.w3.org/2000/svg" xmlns:xlink="http://www.w3.org/1999/xlink" width="32px" height="32px" x="0px" y="0px"
	 viewBox="0 0 488.6 488.6" style="enable-background:new 0 0 488.6 488.6;" xml:space="preserve">
<g>
	<g>
		<path d="M188.5,270.3c-24.4,28.1-23.2,71.7,2.6,98.6c14.4,15.1,33.7,22.6,52.9,22.6c18.8,0,37.5-7.2,51.8-21.5
			c6.5-6.5,11.6-14,15.1-21.9l0,0l94.5-183.2c2.5-5.2-2.9-10.6-8.1-8.1l-183.2,94.5l0,0C204.6,255.5,195.9,261.9,188.5,270.3z
			 M221.9,296.1c6.1-6.1,14.1-9.2,22.1-9.2s16,3.1,22.2,9.2c12.2,12.2,12.2,32.1,0,44.3c-6.1,6.1-14.1,9.2-22.2,9.2
			c-8,0-16-3.1-22.1-9.2C209.6,328.1,209.6,308.3,221.9,296.1z M440.2,341.4c0-34.6-9.1-68.6-26.4-98.3c-6.7-11.6-2.8-26.4,8.8-33.1
			c11.6-6.7,26.4-2.8,33.1,8.8c21.5,37.1,32.9,79.5,32.9,122.6c0,13.4-10.8,24.2-24.2,24.2C451.1,365.6,440.2,354.8,440.2,341.4z
			 M0,341.4C0,206.7,109.6,97.1,244.3,97.1c31.3,0,61.8,5.8,90.6,17.4c12.4,5,18.4,19,13.5,31.4c-5,12.4-19,18.4-31.4,13.5
			c-23.1-9.2-47.6-13.9-72.7-13.9c-108,0-195.9,87.9-195.9,195.9c0,13.4-10.8,24.2-24.2,24.2C10.8,365.6,0,354.8,0,341.4z" stroke-width="2" stroke="#000000" fill="#008000"/>
	</g>
</g>
<g>
</g>
<g>
</g>
<g>
</g>
<g>
</g>
<g>
</g>
<g>
</g>
<g>
</g>
<g>
</g>
<g>
</g>
<g>
</g>
<g>
</g>
<g>
</g>
<g>
</g>
<g>
</g>
<g>
</g>
</svg>
